<mxfile host="app.diagrams.net" modified="2021-03-18T02:04:49.369Z" agent="5.0 (Macintosh; Intel Mac OS X 10_12_6) AppleWebKit/537.36 (KHTML, like Gecko) Chrome/89.0.4389.90 Safari/537.36" etag="zS4qYrhn4TFMAfGfGL3f" version="14.4.8" type="github">
  <diagram id="C5RBs43oDa-KdzZeNtuy" name="Page-1">
    <mxGraphModel dx="786" dy="487" grid="1" gridSize="10" guides="1" tooltips="1" connect="1" arrows="1" fold="1" page="1" pageScale="1" pageWidth="827" pageHeight="1169" math="0" shadow="0">
      <root>
        <mxCell id="WIyWlLk6GJQsqaUBKTNV-0" />
        <mxCell id="WIyWlLk6GJQsqaUBKTNV-1" parent="WIyWlLk6GJQsqaUBKTNV-0" />
        <mxCell id="VfNmNsJII7E2Oj9_ErOp-48" style="edgeStyle=orthogonalEdgeStyle;rounded=0;orthogonalLoop=1;jettySize=auto;html=1;entryX=1;entryY=0.5;entryDx=0;entryDy=0;startArrow=none;startFill=0;endArrow=ERzeroToMany;endFill=1;exitX=0;exitY=0.5;exitDx=0;exitDy=0;" parent="WIyWlLk6GJQsqaUBKTNV-1" source="I_8_5JJbdPGwPO8MQidX-213" edge="1">
          <mxGeometry relative="1" as="geometry">
            <mxPoint x="1077.5" y="358.125" as="targetPoint" />
            <Array as="points">
              <mxPoint x="1120" y="400" />
              <mxPoint x="1120" y="358" />
            </Array>
          </mxGeometry>
        </mxCell>
        <mxCell id="VfNmNsJII7E2Oj9_ErOp-53" style="edgeStyle=orthogonalEdgeStyle;rounded=0;orthogonalLoop=1;jettySize=auto;html=1;entryX=0;entryY=0.25;entryDx=0;entryDy=0;startArrow=none;startFill=0;endArrow=ERmany;endFill=0;exitX=0.5;exitY=0;exitDx=0;exitDy=0;" parent="WIyWlLk6GJQsqaUBKTNV-1" source="I_8_5JJbdPGwPO8MQidX-213" target="VfNmNsJII7E2Oj9_ErOp-7" edge="1">
          <mxGeometry relative="1" as="geometry">
            <Array as="points">
              <mxPoint x="1218" y="364" />
            </Array>
          </mxGeometry>
        </mxCell>
        <mxCell id="I_8_5JJbdPGwPO8MQidX-213" value="SOLICITA" style="shape=rhombus;perimeter=rhombusPerimeter;whiteSpace=wrap;html=1;align=center;" parent="WIyWlLk6GJQsqaUBKTNV-1" vertex="1">
          <mxGeometry x="1170" y="370" width="95" height="60" as="geometry" />
        </mxCell>
        <mxCell id="VfNmNsJII7E2Oj9_ErOp-19" style="edgeStyle=orthogonalEdgeStyle;rounded=0;orthogonalLoop=1;jettySize=auto;html=1;entryX=0;entryY=0.5;entryDx=0;entryDy=0;endArrow=none;endFill=0;startArrow=ERmany;startFill=0;" parent="WIyWlLk6GJQsqaUBKTNV-1" source="I_8_5JJbdPGwPO8MQidX-224" target="VfNmNsJII7E2Oj9_ErOp-9" edge="1">
          <mxGeometry relative="1" as="geometry">
            <mxPoint x="1250" y="580" as="sourcePoint" />
            <Array as="points">
              <mxPoint x="1250" y="620" />
            </Array>
          </mxGeometry>
        </mxCell>
        <mxCell id="VfNmNsJII7E2Oj9_ErOp-21" style="edgeStyle=none;rounded=0;orthogonalLoop=1;jettySize=auto;html=1;entryX=0.5;entryY=1;entryDx=0;entryDy=0;endArrow=none;endFill=0;" parent="WIyWlLk6GJQsqaUBKTNV-1" source="I_8_5JJbdPGwPO8MQidX-224" target="VfNmNsJII7E2Oj9_ErOp-1" edge="1">
          <mxGeometry relative="1" as="geometry" />
        </mxCell>
        <mxCell id="VfNmNsJII7E2Oj9_ErOp-22" style="edgeStyle=none;rounded=0;orthogonalLoop=1;jettySize=auto;html=1;endArrow=none;endFill=0;" parent="WIyWlLk6GJQsqaUBKTNV-1" source="I_8_5JJbdPGwPO8MQidX-224" target="I_8_5JJbdPGwPO8MQidX-264" edge="1">
          <mxGeometry relative="1" as="geometry" />
        </mxCell>
        <mxCell id="VfNmNsJII7E2Oj9_ErOp-23" style="edgeStyle=none;rounded=0;orthogonalLoop=1;jettySize=auto;html=1;entryX=1;entryY=1;entryDx=0;entryDy=0;endArrow=none;endFill=0;" parent="WIyWlLk6GJQsqaUBKTNV-1" source="I_8_5JJbdPGwPO8MQidX-224" target="I_8_5JJbdPGwPO8MQidX-268" edge="1">
          <mxGeometry relative="1" as="geometry" />
        </mxCell>
        <mxCell id="VfNmNsJII7E2Oj9_ErOp-25" style="edgeStyle=none;rounded=0;orthogonalLoop=1;jettySize=auto;html=1;entryX=1;entryY=0;entryDx=0;entryDy=0;endArrow=none;endFill=0;" parent="WIyWlLk6GJQsqaUBKTNV-1" source="I_8_5JJbdPGwPO8MQidX-224" target="VfNmNsJII7E2Oj9_ErOp-0" edge="1">
          <mxGeometry relative="1" as="geometry" />
        </mxCell>
        <mxCell id="VfNmNsJII7E2Oj9_ErOp-26" style="edgeStyle=none;rounded=0;orthogonalLoop=1;jettySize=auto;html=1;entryX=1;entryY=0;entryDx=0;entryDy=0;endArrow=none;endFill=0;" parent="WIyWlLk6GJQsqaUBKTNV-1" source="I_8_5JJbdPGwPO8MQidX-224" target="I_8_5JJbdPGwPO8MQidX-266" edge="1">
          <mxGeometry relative="1" as="geometry" />
        </mxCell>
        <mxCell id="VfNmNsJII7E2Oj9_ErOp-27" style="edgeStyle=none;rounded=0;orthogonalLoop=1;jettySize=auto;html=1;entryX=0.5;entryY=0;entryDx=0;entryDy=0;endArrow=none;endFill=0;" parent="WIyWlLk6GJQsqaUBKTNV-1" source="I_8_5JJbdPGwPO8MQidX-224" target="VfNmNsJII7E2Oj9_ErOp-2" edge="1">
          <mxGeometry relative="1" as="geometry" />
        </mxCell>
        <mxCell id="pECKGC5mE5hubifjCDva-3" style="edgeStyle=none;rounded=0;orthogonalLoop=1;jettySize=auto;html=1;entryX=0.5;entryY=0;entryDx=0;entryDy=0;endArrow=none;endFill=0;" parent="WIyWlLk6GJQsqaUBKTNV-1" source="I_8_5JJbdPGwPO8MQidX-224" target="pECKGC5mE5hubifjCDva-2" edge="1">
          <mxGeometry relative="1" as="geometry" />
        </mxCell>
        <mxCell id="G_FckccKH4Ecl18z6gfM-2" style="edgeStyle=none;rounded=0;orthogonalLoop=1;jettySize=auto;html=1;entryX=0.5;entryY=0;entryDx=0;entryDy=0;endArrow=none;endFill=0;" parent="WIyWlLk6GJQsqaUBKTNV-1" source="I_8_5JJbdPGwPO8MQidX-224" target="G_FckccKH4Ecl18z6gfM-0" edge="1">
          <mxGeometry relative="1" as="geometry" />
        </mxCell>
        <mxCell id="G_FckccKH4Ecl18z6gfM-6" style="edgeStyle=none;rounded=0;orthogonalLoop=1;jettySize=auto;html=1;entryX=0.4;entryY=1.034;entryDx=0;entryDy=0;entryPerimeter=0;endArrow=none;endFill=0;" parent="WIyWlLk6GJQsqaUBKTNV-1" source="I_8_5JJbdPGwPO8MQidX-224" target="G_FckccKH4Ecl18z6gfM-5" edge="1">
          <mxGeometry relative="1" as="geometry" />
        </mxCell>
        <mxCell id="9x1E-fn2I4ilBq3RHDuU-0" style="edgeStyle=orthogonalEdgeStyle;rounded=0;orthogonalLoop=1;jettySize=auto;html=1;entryX=0.75;entryY=1;entryDx=0;entryDy=0;endArrow=ERoneToMany;endFill=0;startArrow=ERone;startFill=0;" edge="1" parent="WIyWlLk6GJQsqaUBKTNV-1" source="I_8_5JJbdPGwPO8MQidX-224" target="VfNmNsJII7E2Oj9_ErOp-52">
          <mxGeometry relative="1" as="geometry">
            <Array as="points">
              <mxPoint x="1045" y="520" />
            </Array>
          </mxGeometry>
        </mxCell>
        <mxCell id="I_8_5JJbdPGwPO8MQidX-224" value="&lt;font style=&quot;font-size: 18px&quot;&gt;LIBRO&lt;/font&gt;" style="whiteSpace=wrap;html=1;align=center;" parent="WIyWlLk6GJQsqaUBKTNV-1" vertex="1">
          <mxGeometry x="1122.5" y="513.75" width="137.5" height="56.25" as="geometry" />
        </mxCell>
        <mxCell id="I_8_5JJbdPGwPO8MQidX-242" value="email" style="ellipse;whiteSpace=wrap;html=1;" parent="WIyWlLk6GJQsqaUBKTNV-1" vertex="1">
          <mxGeometry x="1336" y="152.5" width="84" height="43.75" as="geometry" />
        </mxCell>
        <mxCell id="I_8_5JJbdPGwPO8MQidX-243" value="&lt;u&gt;Username&lt;/u&gt;" style="ellipse;whiteSpace=wrap;html=1;" parent="WIyWlLk6GJQsqaUBKTNV-1" vertex="1">
          <mxGeometry x="1280" y="196.25" width="80" height="43.75" as="geometry" />
        </mxCell>
        <mxCell id="I_8_5JJbdPGwPO8MQidX-244" value="Descripcion" style="ellipse;whiteSpace=wrap;html=1;" parent="WIyWlLk6GJQsqaUBKTNV-1" vertex="1">
          <mxGeometry x="1490" y="294.38" width="81.5" height="45" as="geometry" />
        </mxCell>
        <mxCell id="I_8_5JJbdPGwPO8MQidX-245" value="Nombre" style="ellipse;whiteSpace=wrap;html=1;" parent="WIyWlLk6GJQsqaUBKTNV-1" vertex="1">
          <mxGeometry x="1720" y="695" width="90" height="45" as="geometry" />
        </mxCell>
        <mxCell id="I_8_5JJbdPGwPO8MQidX-246" value="&lt;u&gt;ID&lt;/u&gt;" style="ellipse;whiteSpace=wrap;html=1;" parent="WIyWlLk6GJQsqaUBKTNV-1" vertex="1">
          <mxGeometry x="1724.63" y="610" width="80.75" height="41.25" as="geometry" />
        </mxCell>
        <mxCell id="I_8_5JJbdPGwPO8MQidX-264" value="&lt;u&gt;ID&lt;/u&gt;" style="ellipse;whiteSpace=wrap;html=1;" parent="WIyWlLk6GJQsqaUBKTNV-1" vertex="1">
          <mxGeometry x="1122.5" y="420" width="60" height="35" as="geometry" />
        </mxCell>
        <mxCell id="I_8_5JJbdPGwPO8MQidX-266" value="ISBN" style="ellipse;whiteSpace=wrap;html=1;" parent="WIyWlLk6GJQsqaUBKTNV-1" vertex="1">
          <mxGeometry x="1042.5" y="643.75" width="60" height="36.25" as="geometry" />
        </mxCell>
        <mxCell id="I_8_5JJbdPGwPO8MQidX-268" value="Titulo" style="ellipse;whiteSpace=wrap;html=1;" parent="WIyWlLk6GJQsqaUBKTNV-1" vertex="1">
          <mxGeometry x="1090" y="458.75" width="62.5" height="40" as="geometry" />
        </mxCell>
        <mxCell id="I_8_5JJbdPGwPO8MQidX-270" value="nombre" style="ellipse;whiteSpace=wrap;html=1;" parent="WIyWlLk6GJQsqaUBKTNV-1" vertex="1">
          <mxGeometry x="780" y="611.25" width="60" height="40" as="geometry" />
        </mxCell>
        <mxCell id="VfNmNsJII7E2Oj9_ErOp-15" style="edgeStyle=orthogonalEdgeStyle;rounded=0;orthogonalLoop=1;jettySize=auto;html=1;endArrow=ERzeroToMany;endFill=1;exitX=0.5;exitY=1;exitDx=0;exitDy=0;" parent="WIyWlLk6GJQsqaUBKTNV-1" source="I_8_5JJbdPGwPO8MQidX-278" target="I_8_5JJbdPGwPO8MQidX-224" edge="1">
          <mxGeometry relative="1" as="geometry" />
        </mxCell>
        <mxCell id="I_8_5JJbdPGwPO8MQidX-278" value="TIENE" style="shape=rhombus;perimeter=rhombusPerimeter;whiteSpace=wrap;html=1;align=center;" parent="WIyWlLk6GJQsqaUBKTNV-1" vertex="1">
          <mxGeometry x="1330" y="473.75" width="80" height="40" as="geometry" />
        </mxCell>
        <mxCell id="I_8_5JJbdPGwPO8MQidX-280" value="&lt;br&gt;&lt;br&gt;&lt;br&gt;&lt;br&gt;" style="text;html=1;align=center;verticalAlign=middle;resizable=0;points=[];autosize=1;" parent="WIyWlLk6GJQsqaUBKTNV-1" vertex="1">
          <mxGeometry x="1400" y="720" width="20" height="60" as="geometry" />
        </mxCell>
        <mxCell id="I_8_5JJbdPGwPO8MQidX-283" value="&lt;p&gt;&lt;/p&gt;&lt;div style=&quot;text-align: justify&quot;&gt;&lt;div&gt;&lt;b&gt;Modelo Relacional&amp;nbsp;&amp;nbsp;&lt;/b&gt;&lt;/div&gt;&lt;div&gt;&lt;br style=&quot;text-align: center ; background-color: rgb(255 , 255 , 255)&quot;&gt;&lt;/div&gt;&lt;/div&gt;&lt;div style=&quot;text-align: justify&quot;&gt;&lt;span style=&quot;font-family: &amp;#34;whitney&amp;#34; , &amp;#34;helvetica neue&amp;#34; , &amp;#34;helvetica&amp;#34; , &amp;#34;arial&amp;#34; , sans-serif ; background-color: rgb(255 , 255 , 255)&quot;&gt;&lt;font style=&quot;font-size: 12px&quot;&gt;USUARIO (&lt;b&gt;&lt;u&gt;Username&lt;/u&gt;&lt;/b&gt;, nombre, apellido, email, contraseña, descripcion, imagen de perfil)&lt;/font&gt;&lt;/span&gt;&lt;/div&gt;&lt;font style=&quot;font-size: 12px ; background-color: rgb(255 , 255 , 255)&quot;&gt;&lt;div style=&quot;text-align: justify&quot;&gt;&lt;font face=&quot;whitney, helvetica neue, helvetica, arial, sans-serif&quot; style=&quot;font-size: 12px&quot;&gt;&lt;br&gt;&lt;/font&gt;&lt;/div&gt;&lt;div style=&quot;text-align: justify&quot;&gt;&lt;span style=&quot;font-family: &amp;#34;whitney&amp;#34; , &amp;#34;helvetica neue&amp;#34; , &amp;#34;helvetica&amp;#34; , &amp;#34;arial&amp;#34; , sans-serif&quot;&gt;AUTOR (&lt;/span&gt;&lt;span style=&quot;font-family: &amp;#34;whitney&amp;#34; , &amp;#34;helvetica neue&amp;#34; , &amp;#34;helvetica&amp;#34; , &amp;#34;arial&amp;#34; , sans-serif&quot;&gt;&lt;u style=&quot;font-weight: bold&quot;&gt;ID, &lt;/u&gt;nombre, apellido&lt;/span&gt;&lt;span style=&quot;font-family: &amp;#34;whitney&amp;#34; , &amp;#34;helvetica neue&amp;#34; , &amp;#34;helvetica&amp;#34; , &amp;#34;arial&amp;#34; , sans-serif&quot;&gt;)&lt;/span&gt;&lt;font face=&quot;whitney, helvetica neue, helvetica, arial, sans-serif&quot; style=&quot;font-size: 12px&quot;&gt;&lt;br&gt;&lt;/font&gt;&lt;/div&gt;&lt;div style=&quot;text-align: justify&quot;&gt;&lt;span style=&quot;font-family: &amp;#34;whitney&amp;#34; , &amp;#34;helvetica neue&amp;#34; , &amp;#34;helvetica&amp;#34; , &amp;#34;arial&amp;#34; , sans-serif&quot;&gt;&lt;br&gt;&lt;/span&gt;&lt;/div&gt;&lt;font face=&quot;whitney, helvetica neue, helvetica, arial, sans-serif&quot; style=&quot;font-size: 12px&quot;&gt;&lt;div style=&quot;text-align: justify&quot;&gt;LIBRO (&lt;u&gt;&lt;b&gt;ID,&amp;nbsp;&lt;/b&gt;&lt;/u&gt;titulo, ISBN, tematica, estado, imagen, numero de paginas, descripcion, numero de veces prestado, Nombre de usuario FK, ID editorial FK, Autor FK)&lt;/div&gt;&lt;/font&gt;&lt;/font&gt;&lt;p&gt;&lt;/p&gt;&lt;p style=&quot;text-align: justify&quot;&gt;&lt;span style=&quot;font-family: &amp;#34;whitney&amp;#34; , &amp;#34;helvetica neue&amp;#34; , &amp;#34;helvetica&amp;#34; , &amp;#34;arial&amp;#34; , sans-serif ; background-color: rgb(255 , 255 , 255)&quot;&gt;&lt;font style=&quot;font-size: 12px&quot;&gt;&amp;nbsp;EDITORIAL (&lt;b&gt;&lt;u&gt;ID&lt;/u&gt;&lt;/b&gt;, nombre)&amp;nbsp;&lt;/font&gt;&lt;/span&gt;&lt;/p&gt;&lt;p style=&quot;text-align: justify&quot;&gt;&lt;span style=&quot;font-family: &amp;#34;whitney&amp;#34; , &amp;#34;helvetica neue&amp;#34; , &amp;#34;helvetica&amp;#34; , &amp;#34;arial&amp;#34; , sans-serif ; background-color: rgb(255 , 255 , 255)&quot;&gt;&lt;font style=&quot;font-size: 12px&quot;&gt;&amp;nbsp;PRESTAMO (&lt;b&gt;&lt;u&gt;ID&lt;/u&gt;&lt;/b&gt;, valoracion del libro, fecha de devolucion, fecha prestamo, ID usuario FK)&amp;nbsp;&lt;/font&gt;&lt;/span&gt;&lt;/p&gt;&lt;p style=&quot;text-align: justify&quot;&gt;&lt;span style=&quot;font-family: &amp;#34;whitney&amp;#34; , &amp;#34;helvetica neue&amp;#34; , &amp;#34;helvetica&amp;#34; , &amp;#34;arial&amp;#34; , sans-serif ; background-color: rgb(255 , 255 , 255)&quot;&gt;&lt;font style=&quot;font-size: 12px&quot;&gt;&amp;nbsp;MENSAJES (&lt;u style=&quot;font-weight: bold&quot;&gt;ID,&lt;/u&gt; Nombre de usuario FK, Nombre de usuario FK)&amp;nbsp;&lt;/font&gt;&lt;/span&gt;&lt;/p&gt;&lt;p style=&quot;text-align: justify&quot;&gt;&lt;span style=&quot;font-family: &amp;#34;whitney&amp;#34; , &amp;#34;helvetica neue&amp;#34; , &amp;#34;helvetica&amp;#34; , &amp;#34;arial&amp;#34; , sans-serif ; background-color: rgb(255 , 255 , 255)&quot;&gt;&lt;font style=&quot;font-size: 12px&quot;&gt;&amp;nbsp;&lt;/font&gt;&lt;/span&gt;&lt;/p&gt;" style="text;html=1;align=center;verticalAlign=middle;resizable=0;points=[];autosize=1;" parent="WIyWlLk6GJQsqaUBKTNV-1" vertex="1">
          <mxGeometry x="855" y="755" width="880" height="230" as="geometry" />
        </mxCell>
        <mxCell id="VfNmNsJII7E2Oj9_ErOp-0" value="Tematica" style="ellipse;whiteSpace=wrap;html=1;" parent="WIyWlLk6GJQsqaUBKTNV-1" vertex="1">
          <mxGeometry x="1015" y="585" width="65" height="45" as="geometry" />
        </mxCell>
        <mxCell id="VfNmNsJII7E2Oj9_ErOp-1" value="Imagen&amp;nbsp;" style="ellipse;whiteSpace=wrap;html=1;" parent="WIyWlLk6GJQsqaUBKTNV-1" vertex="1">
          <mxGeometry x="1173" y="444.38" width="67.5" height="43.75" as="geometry" />
        </mxCell>
        <mxCell id="VfNmNsJII7E2Oj9_ErOp-2" value="Estado" style="ellipse;whiteSpace=wrap;html=1;" parent="WIyWlLk6GJQsqaUBKTNV-1" vertex="1">
          <mxGeometry x="1100" y="661.25" width="60" height="40" as="geometry" />
        </mxCell>
        <mxCell id="VfNmNsJII7E2Oj9_ErOp-4" value="Imagen de Perfil" style="ellipse;whiteSpace=wrap;html=1;" parent="WIyWlLk6GJQsqaUBKTNV-1" vertex="1">
          <mxGeometry x="1458.5" y="240" width="81.5" height="40" as="geometry" />
        </mxCell>
        <mxCell id="VfNmNsJII7E2Oj9_ErOp-14" style="edgeStyle=orthogonalEdgeStyle;rounded=0;orthogonalLoop=1;jettySize=auto;html=1;endArrow=none;endFill=0;startArrow=ERone;startFill=0;" parent="WIyWlLk6GJQsqaUBKTNV-1" source="VfNmNsJII7E2Oj9_ErOp-7" target="I_8_5JJbdPGwPO8MQidX-278" edge="1">
          <mxGeometry relative="1" as="geometry" />
        </mxCell>
        <mxCell id="VfNmNsJII7E2Oj9_ErOp-16" style="edgeStyle=orthogonalEdgeStyle;rounded=0;orthogonalLoop=1;jettySize=auto;html=1;entryX=1;entryY=0.5;entryDx=0;entryDy=0;endArrow=none;endFill=0;startArrow=ERone;startFill=0;" parent="WIyWlLk6GJQsqaUBKTNV-1" source="VfNmNsJII7E2Oj9_ErOp-7" target="I_8_5JJbdPGwPO8MQidX-213" edge="1">
          <mxGeometry relative="1" as="geometry">
            <Array as="points">
              <mxPoint x="1320" y="400" />
              <mxPoint x="1320" y="400" />
            </Array>
          </mxGeometry>
        </mxCell>
        <mxCell id="VfNmNsJII7E2Oj9_ErOp-29" style="edgeStyle=none;rounded=0;orthogonalLoop=1;jettySize=auto;html=1;entryX=0.5;entryY=1;entryDx=0;entryDy=0;endArrow=none;endFill=0;exitX=0.25;exitY=0;exitDx=0;exitDy=0;" parent="WIyWlLk6GJQsqaUBKTNV-1" source="VfNmNsJII7E2Oj9_ErOp-7" target="I_8_5JJbdPGwPO8MQidX-243" edge="1">
          <mxGeometry relative="1" as="geometry" />
        </mxCell>
        <mxCell id="VfNmNsJII7E2Oj9_ErOp-30" style="edgeStyle=none;rounded=0;orthogonalLoop=1;jettySize=auto;html=1;entryX=0.5;entryY=1;entryDx=0;entryDy=0;endArrow=none;endFill=0;exitX=0.407;exitY=0;exitDx=0;exitDy=0;exitPerimeter=0;" parent="WIyWlLk6GJQsqaUBKTNV-1" source="VfNmNsJII7E2Oj9_ErOp-7" target="I_8_5JJbdPGwPO8MQidX-242" edge="1">
          <mxGeometry relative="1" as="geometry" />
        </mxCell>
        <mxCell id="VfNmNsJII7E2Oj9_ErOp-31" style="edgeStyle=none;rounded=0;orthogonalLoop=1;jettySize=auto;html=1;entryX=0.5;entryY=1;entryDx=0;entryDy=0;endArrow=none;endFill=0;" parent="WIyWlLk6GJQsqaUBKTNV-1" source="VfNmNsJII7E2Oj9_ErOp-7" target="VfNmNsJII7E2Oj9_ErOp-10" edge="1">
          <mxGeometry relative="1" as="geometry" />
        </mxCell>
        <mxCell id="VfNmNsJII7E2Oj9_ErOp-32" style="edgeStyle=none;rounded=0;orthogonalLoop=1;jettySize=auto;html=1;entryX=0;entryY=1;entryDx=0;entryDy=0;endArrow=none;endFill=0;" parent="WIyWlLk6GJQsqaUBKTNV-1" source="VfNmNsJII7E2Oj9_ErOp-7" target="VfNmNsJII7E2Oj9_ErOp-4" edge="1">
          <mxGeometry relative="1" as="geometry" />
        </mxCell>
        <mxCell id="VfNmNsJII7E2Oj9_ErOp-33" style="edgeStyle=none;rounded=0;orthogonalLoop=1;jettySize=auto;html=1;entryX=0;entryY=0.5;entryDx=0;entryDy=0;endArrow=none;endFill=0;" parent="WIyWlLk6GJQsqaUBKTNV-1" source="VfNmNsJII7E2Oj9_ErOp-7" target="I_8_5JJbdPGwPO8MQidX-244" edge="1">
          <mxGeometry relative="1" as="geometry" />
        </mxCell>
        <mxCell id="pECKGC5mE5hubifjCDva-1" style="rounded=0;orthogonalLoop=1;jettySize=auto;html=1;entryX=1;entryY=1;entryDx=0;entryDy=0;endArrow=none;endFill=0;" parent="WIyWlLk6GJQsqaUBKTNV-1" source="VfNmNsJII7E2Oj9_ErOp-7" target="pECKGC5mE5hubifjCDva-0" edge="1">
          <mxGeometry relative="1" as="geometry" />
        </mxCell>
        <mxCell id="G_FckccKH4Ecl18z6gfM-4" style="edgeStyle=none;rounded=0;orthogonalLoop=1;jettySize=auto;html=1;entryX=1;entryY=1;entryDx=0;entryDy=0;endArrow=none;endFill=0;" parent="WIyWlLk6GJQsqaUBKTNV-1" source="VfNmNsJII7E2Oj9_ErOp-7" target="G_FckccKH4Ecl18z6gfM-3" edge="1">
          <mxGeometry relative="1" as="geometry" />
        </mxCell>
        <mxCell id="VfNmNsJII7E2Oj9_ErOp-7" value="&lt;font style=&quot;font-size: 18px&quot;&gt;USUARIO&lt;br&gt;&lt;/font&gt;" style="whiteSpace=wrap;html=1;align=center;" parent="WIyWlLk6GJQsqaUBKTNV-1" vertex="1">
          <mxGeometry x="1360" y="350" width="137.5" height="56.25" as="geometry" />
        </mxCell>
        <mxCell id="VfNmNsJII7E2Oj9_ErOp-60" style="edgeStyle=none;rounded=0;orthogonalLoop=1;jettySize=auto;html=1;entryX=0;entryY=0.5;entryDx=0;entryDy=0;startArrow=none;startFill=0;endArrow=none;endFill=0;" parent="WIyWlLk6GJQsqaUBKTNV-1" source="VfNmNsJII7E2Oj9_ErOp-8" target="I_8_5JJbdPGwPO8MQidX-246" edge="1">
          <mxGeometry relative="1" as="geometry" />
        </mxCell>
        <mxCell id="VfNmNsJII7E2Oj9_ErOp-61" style="edgeStyle=none;rounded=0;orthogonalLoop=1;jettySize=auto;html=1;entryX=0;entryY=0.5;entryDx=0;entryDy=0;startArrow=none;startFill=0;endArrow=none;endFill=0;" parent="WIyWlLk6GJQsqaUBKTNV-1" source="VfNmNsJII7E2Oj9_ErOp-8" target="I_8_5JJbdPGwPO8MQidX-245" edge="1">
          <mxGeometry relative="1" as="geometry" />
        </mxCell>
        <mxCell id="VfNmNsJII7E2Oj9_ErOp-8" value="&lt;font style=&quot;font-size: 18px&quot;&gt;EDITORIAL&lt;br&gt;&lt;/font&gt;" style="whiteSpace=wrap;html=1;align=center;" parent="WIyWlLk6GJQsqaUBKTNV-1" vertex="1">
          <mxGeometry x="1540" y="645" width="136" height="56.25" as="geometry" />
        </mxCell>
        <mxCell id="VfNmNsJII7E2Oj9_ErOp-20" style="edgeStyle=orthogonalEdgeStyle;rounded=0;orthogonalLoop=1;jettySize=auto;html=1;entryX=0;entryY=0.5;entryDx=0;entryDy=0;endArrow=ERone;endFill=0;" parent="WIyWlLk6GJQsqaUBKTNV-1" source="VfNmNsJII7E2Oj9_ErOp-9" target="VfNmNsJII7E2Oj9_ErOp-8" edge="1">
          <mxGeometry relative="1" as="geometry" />
        </mxCell>
        <mxCell id="VfNmNsJII7E2Oj9_ErOp-9" value="TIENE" style="shape=rhombus;perimeter=rhombusPerimeter;whiteSpace=wrap;html=1;align=center;" parent="WIyWlLk6GJQsqaUBKTNV-1" vertex="1">
          <mxGeometry x="1350" y="600" width="80" height="40" as="geometry" />
        </mxCell>
        <mxCell id="VfNmNsJII7E2Oj9_ErOp-10" value="Contraseña" style="ellipse;whiteSpace=wrap;html=1;" parent="WIyWlLk6GJQsqaUBKTNV-1" vertex="1">
          <mxGeometry x="1397" y="196.25" width="70" height="40" as="geometry" />
        </mxCell>
        <mxCell id="VfNmNsJII7E2Oj9_ErOp-46" style="edgeStyle=orthogonalEdgeStyle;rounded=0;orthogonalLoop=1;jettySize=auto;html=1;entryX=1;entryY=0.5;entryDx=0;entryDy=0;startArrow=none;startFill=0;endArrow=ERmany;endFill=0;exitX=0.5;exitY=0;exitDx=0;exitDy=0;" parent="WIyWlLk6GJQsqaUBKTNV-1" source="VfNmNsJII7E2Oj9_ErOp-42" target="VfNmNsJII7E2Oj9_ErOp-7" edge="1">
          <mxGeometry relative="1" as="geometry">
            <Array as="points">
              <mxPoint x="1550" y="378" />
            </Array>
          </mxGeometry>
        </mxCell>
        <mxCell id="VfNmNsJII7E2Oj9_ErOp-45" style="edgeStyle=orthogonalEdgeStyle;rounded=0;orthogonalLoop=1;jettySize=auto;html=1;entryX=0;entryY=0.5;entryDx=0;entryDy=0;startArrow=none;startFill=0;endArrow=ERmany;endFill=0;" parent="WIyWlLk6GJQsqaUBKTNV-1" source="VfNmNsJII7E2Oj9_ErOp-42" edge="1">
          <mxGeometry relative="1" as="geometry">
            <mxPoint x="1660" y="468.125" as="targetPoint" />
          </mxGeometry>
        </mxCell>
        <mxCell id="VfNmNsJII7E2Oj9_ErOp-42" value="ENVIA" style="shape=rhombus;perimeter=rhombusPerimeter;whiteSpace=wrap;html=1;align=center;" parent="WIyWlLk6GJQsqaUBKTNV-1" vertex="1">
          <mxGeometry x="1510" y="448.13" width="80" height="40" as="geometry" />
        </mxCell>
        <mxCell id="VfNmNsJII7E2Oj9_ErOp-44" style="edgeStyle=orthogonalEdgeStyle;rounded=0;orthogonalLoop=1;jettySize=auto;html=1;entryX=0.003;entryY=0.5;entryDx=0;entryDy=0;startArrow=ERone;startFill=0;endArrow=none;endFill=0;exitX=0.725;exitY=0.996;exitDx=0;exitDy=0;exitPerimeter=0;entryPerimeter=0;" parent="WIyWlLk6GJQsqaUBKTNV-1" source="VfNmNsJII7E2Oj9_ErOp-7" target="VfNmNsJII7E2Oj9_ErOp-42" edge="1">
          <mxGeometry relative="1" as="geometry">
            <mxPoint x="1459.6875" y="406.0250000000001" as="sourcePoint" />
            <mxPoint x="1660.4125" y="468.125" as="targetPoint" />
            <Array as="points" />
          </mxGeometry>
        </mxCell>
        <mxCell id="VfNmNsJII7E2Oj9_ErOp-49" value="Fecha prestamo" style="ellipse;whiteSpace=wrap;html=1;" parent="WIyWlLk6GJQsqaUBKTNV-1" vertex="1">
          <mxGeometry x="1043" y="240" width="73.75" height="50" as="geometry" />
        </mxCell>
        <mxCell id="VfNmNsJII7E2Oj9_ErOp-51" value="Fecha devolucion" style="ellipse;whiteSpace=wrap;html=1;" parent="WIyWlLk6GJQsqaUBKTNV-1" vertex="1">
          <mxGeometry x="960" y="240" width="73.75" height="50" as="geometry" />
        </mxCell>
        <mxCell id="VfNmNsJII7E2Oj9_ErOp-56" style="edgeStyle=none;rounded=0;orthogonalLoop=1;jettySize=auto;html=1;entryX=0;entryY=1;entryDx=0;entryDy=0;startArrow=none;startFill=0;endArrow=none;endFill=0;" parent="WIyWlLk6GJQsqaUBKTNV-1" source="VfNmNsJII7E2Oj9_ErOp-52" target="VfNmNsJII7E2Oj9_ErOp-49" edge="1">
          <mxGeometry relative="1" as="geometry" />
        </mxCell>
        <mxCell id="VfNmNsJII7E2Oj9_ErOp-57" style="edgeStyle=none;rounded=0;orthogonalLoop=1;jettySize=auto;html=1;entryX=0.5;entryY=1;entryDx=0;entryDy=0;startArrow=none;startFill=0;endArrow=none;endFill=0;" parent="WIyWlLk6GJQsqaUBKTNV-1" source="VfNmNsJII7E2Oj9_ErOp-52" target="VfNmNsJII7E2Oj9_ErOp-51" edge="1">
          <mxGeometry relative="1" as="geometry" />
        </mxCell>
        <mxCell id="VfNmNsJII7E2Oj9_ErOp-59" style="edgeStyle=none;rounded=0;orthogonalLoop=1;jettySize=auto;html=1;entryX=0.5;entryY=1;entryDx=0;entryDy=0;startArrow=none;startFill=0;endArrow=none;endFill=0;" parent="WIyWlLk6GJQsqaUBKTNV-1" source="VfNmNsJII7E2Oj9_ErOp-52" target="VfNmNsJII7E2Oj9_ErOp-58" edge="1">
          <mxGeometry relative="1" as="geometry" />
        </mxCell>
        <mxCell id="VfNmNsJII7E2Oj9_ErOp-63" style="edgeStyle=none;rounded=0;orthogonalLoop=1;jettySize=auto;html=1;entryX=1;entryY=0.5;entryDx=0;entryDy=0;startArrow=none;startFill=0;endArrow=none;endFill=0;" parent="WIyWlLk6GJQsqaUBKTNV-1" source="VfNmNsJII7E2Oj9_ErOp-52" target="VfNmNsJII7E2Oj9_ErOp-62" edge="1">
          <mxGeometry relative="1" as="geometry" />
        </mxCell>
        <mxCell id="VfNmNsJII7E2Oj9_ErOp-52" value="&lt;span style=&quot;font-size: 18px&quot;&gt;PRESTAMO&lt;/span&gt;" style="shape=process;whiteSpace=wrap;html=1;backgroundOutline=1;" parent="WIyWlLk6GJQsqaUBKTNV-1" vertex="1">
          <mxGeometry x="940" y="330" width="140" height="60" as="geometry" />
        </mxCell>
        <mxCell id="VfNmNsJII7E2Oj9_ErOp-65" style="edgeStyle=none;rounded=0;orthogonalLoop=1;jettySize=auto;html=1;entryX=0.441;entryY=1.032;entryDx=0;entryDy=0;entryPerimeter=0;startArrow=none;startFill=0;endArrow=none;endFill=0;" parent="WIyWlLk6GJQsqaUBKTNV-1" source="VfNmNsJII7E2Oj9_ErOp-54" target="VfNmNsJII7E2Oj9_ErOp-64" edge="1">
          <mxGeometry relative="1" as="geometry" />
        </mxCell>
        <mxCell id="VfNmNsJII7E2Oj9_ErOp-54" value="&lt;span style=&quot;font-size: 18px&quot;&gt;MENSAJES&lt;/span&gt;" style="shape=process;whiteSpace=wrap;html=1;backgroundOutline=1;" parent="WIyWlLk6GJQsqaUBKTNV-1" vertex="1">
          <mxGeometry x="1658.75" y="438.75" width="140" height="60" as="geometry" />
        </mxCell>
        <mxCell id="VfNmNsJII7E2Oj9_ErOp-58" value="Valoracion&lt;br&gt;del libro" style="ellipse;whiteSpace=wrap;html=1;" parent="WIyWlLk6GJQsqaUBKTNV-1" vertex="1">
          <mxGeometry x="880" y="250" width="73.75" height="50" as="geometry" />
        </mxCell>
        <mxCell id="VfNmNsJII7E2Oj9_ErOp-62" value="&lt;u&gt;ID&lt;/u&gt;" style="ellipse;whiteSpace=wrap;html=1;" parent="WIyWlLk6GJQsqaUBKTNV-1" vertex="1">
          <mxGeometry x="840" y="335" width="60" height="35" as="geometry" />
        </mxCell>
        <mxCell id="VfNmNsJII7E2Oj9_ErOp-64" value="&lt;u&gt;ID&lt;/u&gt;" style="ellipse;whiteSpace=wrap;html=1;" parent="WIyWlLk6GJQsqaUBKTNV-1" vertex="1">
          <mxGeometry x="1740" y="339.38" width="80.75" height="41.25" as="geometry" />
        </mxCell>
        <mxCell id="pECKGC5mE5hubifjCDva-0" value="Nombre" style="ellipse;whiteSpace=wrap;html=1;" parent="WIyWlLk6GJQsqaUBKTNV-1" vertex="1">
          <mxGeometry x="1230" y="294.38" width="81.5" height="45" as="geometry" />
        </mxCell>
        <mxCell id="pECKGC5mE5hubifjCDva-2" value="numero veces prestado" style="ellipse;whiteSpace=wrap;html=1;" parent="WIyWlLk6GJQsqaUBKTNV-1" vertex="1">
          <mxGeometry x="1133.75" y="701.25" width="80" height="58.75" as="geometry" />
        </mxCell>
        <mxCell id="G_FckccKH4Ecl18z6gfM-0" value="numero de paginas" style="ellipse;whiteSpace=wrap;html=1;" parent="WIyWlLk6GJQsqaUBKTNV-1" vertex="1">
          <mxGeometry x="1183.75" y="661.25" width="67.5" height="43.75" as="geometry" />
        </mxCell>
        <mxCell id="G_FckccKH4Ecl18z6gfM-3" value="Apellido" style="ellipse;whiteSpace=wrap;html=1;" parent="WIyWlLk6GJQsqaUBKTNV-1" vertex="1">
          <mxGeometry x="1223" y="240" width="81.5" height="45" as="geometry" />
        </mxCell>
        <mxCell id="G_FckccKH4Ecl18z6gfM-5" value="descripcion" style="ellipse;whiteSpace=wrap;html=1;" parent="WIyWlLk6GJQsqaUBKTNV-1" vertex="1">
          <mxGeometry x="1251.25" y="446.88" width="67.5" height="43.75" as="geometry" />
        </mxCell>
        <mxCell id="G_FckccKH4Ecl18z6gfM-10" style="edgeStyle=none;rounded=0;orthogonalLoop=1;jettySize=auto;html=1;entryX=0;entryY=0.5;entryDx=0;entryDy=0;endArrow=ERoneToMany;endFill=0;" parent="WIyWlLk6GJQsqaUBKTNV-1" source="G_FckccKH4Ecl18z6gfM-11" target="I_8_5JJbdPGwPO8MQidX-224" edge="1">
          <mxGeometry relative="1" as="geometry" />
        </mxCell>
        <mxCell id="G_FckccKH4Ecl18z6gfM-13" style="edgeStyle=none;rounded=0;orthogonalLoop=1;jettySize=auto;html=1;entryX=0.5;entryY=1;entryDx=0;entryDy=0;startArrow=none;startFill=0;endArrow=none;endFill=0;" parent="WIyWlLk6GJQsqaUBKTNV-1" source="G_FckccKH4Ecl18z6gfM-7" target="G_FckccKH4Ecl18z6gfM-9" edge="1">
          <mxGeometry relative="1" as="geometry" />
        </mxCell>
        <mxCell id="G_FckccKH4Ecl18z6gfM-14" style="edgeStyle=none;rounded=0;orthogonalLoop=1;jettySize=auto;html=1;entryX=0.5;entryY=0;entryDx=0;entryDy=0;startArrow=none;startFill=0;endArrow=none;endFill=0;" parent="WIyWlLk6GJQsqaUBKTNV-1" source="G_FckccKH4Ecl18z6gfM-7" target="I_8_5JJbdPGwPO8MQidX-270" edge="1">
          <mxGeometry relative="1" as="geometry" />
        </mxCell>
        <mxCell id="G_FckccKH4Ecl18z6gfM-15" style="edgeStyle=none;rounded=0;orthogonalLoop=1;jettySize=auto;html=1;entryX=0;entryY=0;entryDx=0;entryDy=0;startArrow=none;startFill=0;endArrow=none;endFill=0;" parent="WIyWlLk6GJQsqaUBKTNV-1" source="G_FckccKH4Ecl18z6gfM-7" target="G_FckccKH4Ecl18z6gfM-8" edge="1">
          <mxGeometry relative="1" as="geometry" />
        </mxCell>
        <mxCell id="G_FckccKH4Ecl18z6gfM-7" value="&lt;font style=&quot;font-size: 18px&quot;&gt;AUTOR&lt;/font&gt;" style="whiteSpace=wrap;html=1;align=center;" parent="WIyWlLk6GJQsqaUBKTNV-1" vertex="1">
          <mxGeometry x="770" y="521.88" width="137.5" height="56.25" as="geometry" />
        </mxCell>
        <mxCell id="G_FckccKH4Ecl18z6gfM-8" value="Apellido" style="ellipse;whiteSpace=wrap;html=1;" parent="WIyWlLk6GJQsqaUBKTNV-1" vertex="1">
          <mxGeometry x="880" y="610" width="60" height="40" as="geometry" />
        </mxCell>
        <mxCell id="G_FckccKH4Ecl18z6gfM-9" value="&lt;u&gt;ID&lt;/u&gt;" style="ellipse;whiteSpace=wrap;html=1;" parent="WIyWlLk6GJQsqaUBKTNV-1" vertex="1">
          <mxGeometry x="808.75" y="463.75" width="60" height="35" as="geometry" />
        </mxCell>
        <mxCell id="G_FckccKH4Ecl18z6gfM-11" value="escribe" style="shape=rhombus;perimeter=rhombusPerimeter;whiteSpace=wrap;html=1;align=center;" parent="WIyWlLk6GJQsqaUBKTNV-1" vertex="1">
          <mxGeometry x="963" y="530" width="80" height="40" as="geometry" />
        </mxCell>
        <mxCell id="G_FckccKH4Ecl18z6gfM-12" style="edgeStyle=none;rounded=0;orthogonalLoop=1;jettySize=auto;html=1;entryX=0;entryY=0.5;entryDx=0;entryDy=0;endArrow=none;endFill=0;startArrow=ERone;startFill=0;" parent="WIyWlLk6GJQsqaUBKTNV-1" source="G_FckccKH4Ecl18z6gfM-7" target="G_FckccKH4Ecl18z6gfM-11" edge="1">
          <mxGeometry relative="1" as="geometry">
            <mxPoint x="907.5" y="548.0351762114537" as="sourcePoint" />
            <mxPoint x="1122.5" y="541.875" as="targetPoint" />
          </mxGeometry>
        </mxCell>
      </root>
    </mxGraphModel>
  </diagram>
</mxfile>
